<svg data-v-423bf9ae="" xmlns="http://www.w3.org/2000/svg" viewBox="0 0 311.55242987946207 60" class="font"><!----><!----><defs data-v-423bf9ae=""><linearGradient data-v-423bf9ae="" gradientTransform="rotate(25)" id="d8b47727-2e5f-428e-bb0f-2c8ff0d078a8" x1="0%" y1="0%" x2="100%" y2="0%"><stop data-v-423bf9ae="" offset="0%" style="stop-color: rgb(146, 13, 233); stop-opacity: 1;"></stop><stop data-v-423bf9ae="" offset="100%" style="stop-color: rgb(21, 54, 241); stop-opacity: 1;"></stop></linearGradient></defs><g data-v-423bf9ae="" id="099d92e0-62fa-43b1-8828-4ef8d711ae84" fill="url(#d8b47727-2e5f-428e-bb0f-2c8ff0d078a8)" transform="matrix(6.048387050256521,0,0,6.048387050256521,-5.927419287899738,-25.887097367262854)"><path d="M0.98 14.08L3.47 14.08L3.47 10.28L7.53 10.28L7.53 14.08L10.02 14.08L10.02 4.28L7.53 4.28L7.53 8.32L3.47 8.32L3.47 4.28L0.98 4.28ZM11.98 14.08L14.48 14.08L14.48 11.33L16.25 11.33C18.76 11.33 20.20 10.00 20.20 7.70C20.20 5.52 18.76 4.28 16.25 4.28L11.98 4.28ZM14.48 9.37L14.48 6.24L16.13 6.24C17.22 6.24 17.85 6.76 17.85 7.78C17.85 8.82 17.22 9.37 16.13 9.37ZM21.34 9.97C21.34 12.56 23.10 14.20 25.86 14.20C28.60 14.20 30.32 12.56 30.32 9.97L30.32 4.28L27.85 4.28L27.85 9.97C27.85 11.30 27.05 12.11 25.87 12.11C24.68 12.11 23.83 11.30 23.83 9.97L23.83 4.28L21.34 4.28ZM32.12 14.08L34.45 14.08L34.45 8.05L38.96 14.08L41.16 14.08L41.16 4.28L38.84 4.28L38.84 10.33L34.31 4.28L32.12 4.28ZM43.12 14.08L45.61 14.08L45.61 11.68L46.91 10.23L49.50 14.08L52.49 14.08L48.61 8.34L52.25 4.28L49.36 4.28L45.61 8.53L45.61 4.28L43.12 4.28Z"></path></g><!----><!----></svg>